<svg xmlns="http://www.w3.org/2000/svg" version="1.1" xmlns:xlink="http://www.w3.org/1999/xlink" xmlns:svgjs="http://svgjs.dev/svgjs" width="1500" height="507" viewBox="0 0 1500 507"><g transform="matrix(1,0,0,1,-0.9090909090911055,-1.3457743983377952)"><svg viewBox="0 0 396 134" data-background-color="#2a1f4d" preserveAspectRatio="xMidYMid meet" height="507" width="1500" xmlns="http://www.w3.org/2000/svg" xmlns:xlink="http://www.w3.org/1999/xlink"><g id="tight-bounds" transform="matrix(1,0,0,1,0.24000000000003752,0.3556879080419435)"><svg viewBox="0 0 395.5199999999999 133.28878130248418" height="133.28878130248418" width="395.5199999999999"><g><svg viewBox="0 0 725.3235460815047 244.43135999999998" height="133.28878130248418" width="395.5199999999999"><g transform="matrix(1,0,0,1,329.8035460815047,16.755363076962453)"><svg viewBox="0 0 395.52 210.92063384607508" height="210.92063384607508" width="395.52"><g id="textblocktransform"><svg viewBox="0 0 395.52 210.92063384607508" height="210.92063384607508" width="395.52" id="textblock"><g><svg viewBox="0 0 395.52 144.65203761755484" height="144.65203761755484" width="395.52"><g transform="matrix(1,0,0,1,0,0)"><svg width="395.52" viewBox="3.6 -35 95.69000000000001 35" height="144.65203761755484" data-palette-color="#ffffff"><path d="M4.1 0Q3.6 0 3.6-0.5L3.6-0.5 3.6-34.5Q3.6-35 4.1-35L4.1-35 6.65-35Q7.15-35 7.15-34.5L7.15-34.5 7.15-18.3Q7.15-18.15 7.25-18.1 7.35-18.05 7.4-18.2L7.4-18.2 17.05-34.65Q17.3-35 17.65-35L17.65-35 20.45-35Q20.75-35 20.85-34.83 20.95-34.65 20.8-34.4L20.8-34.4 13-20.85Q12.9-20.65 12.95-20.55L12.95-20.55 21.55-0.6 21.6-0.4Q21.6 0 21.15 0L21.15 0 18.3 0Q17.9 0 17.75-0.4L17.75-0.4 10.55-17.4Q10.5-17.6 10.3-17.4L10.3-17.4 7.2-12.6Q7.15-12.55 7.15-12.35L7.15-12.35 7.15-0.5Q7.15 0 6.65 0L6.65 0 4.1 0ZM42.05-32.4Q42.05-31.9 41.55-31.9L41.55-31.9 29.95-31.9Q29.75-31.9 29.75-31.7L29.75-31.7 29.75-19.3Q29.75-19.1 29.95-19.1L29.95-19.1 37.25-19.1Q37.75-19.1 37.75-18.6L37.75-18.6 37.75-16.45Q37.75-15.95 37.25-15.95L37.25-15.95 29.95-15.95Q29.75-15.95 29.75-15.75L29.75-15.75 29.75-3.3Q29.75-3.1 29.95-3.1L29.95-3.1 41.55-3.1Q42.05-3.1 42.05-2.6L42.05-2.6 42.05-0.5Q42.05 0 41.55 0L41.55 0 26.7 0Q26.2 0 26.2-0.5L26.2-0.5 26.2-34.5Q26.2-35 26.7-35L26.7-35 41.55-35Q42.05-35 42.05-34.5L42.05-34.5 42.05-32.4ZM61.65-34.5Q61.65-35 62.15-35L62.15-35 64.65-35Q65.15-35 65.15-34.5L65.15-34.5 65.15-0.5Q65.15 0 64.65 0L64.65 0 61.7 0Q61.3 0 61.15-0.4L61.15-0.4 51.4-26.25Q51.34-26.4 51.25-26.38 51.15-26.35 51.15-26.2L51.15-26.2 51.2-0.5Q51.2 0 50.7 0L50.7 0 48.15 0Q47.65 0 47.65-0.5L47.65-0.5 47.65-34.5Q47.65-35 48.15-35L48.15-35 51.05-35Q51.45-35 51.59-34.6L51.59-34.6 61.4-8.7Q61.45-8.55 61.55-8.58 61.65-8.6 61.65-8.75L61.65-8.75 61.65-34.5ZM72.79 0Q72.29 0 72.29-0.5L72.29-0.5 72.29-34.5Q72.29-35 72.79-35L72.79-35 75.34-35Q75.84-35 75.84-34.5L75.84-34.5 75.84-0.5Q75.84 0 75.34 0L75.34 0 72.79 0ZM96.24 0Q95.79 0 95.69-0.45L95.69-0.45 94.44-6.65Q94.44-6.75 94.37-6.8 94.29-6.85 94.19-6.85L94.19-6.85 85.14-6.85Q85.04-6.85 84.97-6.8 84.89-6.75 84.89-6.65L84.89-6.65 83.64-0.45Q83.59 0 83.09 0L83.09 0 80.54 0Q80.29 0 80.17-0.15 80.04-0.3 80.09-0.55L80.09-0.55 87.59-34.55Q87.69-35 88.14-35L88.14-35 91.14-35Q91.64-35 91.69-34.55L91.69-34.55 99.29-0.55 99.29-0.45Q99.29 0 98.84 0L98.84 0 96.24 0ZM85.54-9.95Q85.54-9.75 85.69-9.75L85.69-9.75 93.59-9.75Q93.74-9.75 93.74-9.95L93.74-9.95 89.74-29.6Q89.69-29.75 89.64-29.75 89.59-29.75 89.54-29.6L89.54-29.6 85.54-9.95Z" opacity="1" transform="matrix(1,0,0,1,0,0)" fill="#ffffff" class="wordmark-text-0" data-fill-palette-color="primary" id="text-0"></path></svg></g></svg></g><g transform="matrix(1,0,0,1,0,178.8009120501567)"><svg viewBox="0 0 232.209792 32.11972179591836" height="32.11972179591836" width="232.209792"><g transform="matrix(1,0,0,1,0,0)"><svg width="232.209792" viewBox="4.45 -32.9 242.52 33.55" height="32.11972179591836" data-palette-color="#ffffff"><path d="M4.45-1.55L4.45-26.95 7.85-27.25Q8.05-25.7 8.2-23.6 8.35-21.5 8.43-19.28 8.5-17.05 8.5-15.05L8.5-15.05 8.5-0.1Q8.25 0 7.73 0.13 7.2 0.25 6.65 0.25L6.65 0.25Q5.55 0.25 5-0.18 4.45-0.6 4.45-1.55L4.45-1.55ZM28.55-28.85L28.55-3.45 25.1-3.15Q24.6-7.35 24.53-11.73 24.45-16.1 24.45-20.2L24.45-20.2 24.45-30.3Q24.75-30.4 25.25-30.53 25.75-30.65 26.35-30.65L26.35-30.65Q27.45-30.65 28-30.23 28.55-29.8 28.55-28.85L28.55-28.85ZM24.8-4L28.55-4.95 28.55-5.15 28.55-0.55Q28.1-0.2 27.4 0.05 26.7 0.3 25.85 0.3L25.85 0.3Q24.65 0.3 23.8-0.18 22.95-0.65 22.25-1.9L22.25-1.9 12.75-17.9Q12-19.25 11.1-20.88 10.2-22.5 9.4-23.98 8.6-25.45 8.15-26.4L8.15-26.4 4.45-25.45 4.45-29.8Q4.85-30.2 5.58-30.45 6.3-30.7 7.15-30.7L7.15-30.7Q8.35-30.7 9.2-30.23 10.05-29.75 10.75-28.5L10.75-28.5 20.3-12.5Q21.1-11.15 21.98-9.53 22.85-7.9 23.6-6.43 24.35-4.95 24.8-4L24.8-4ZM36.75-8.45L36.75-8.45 36.75-13 40.75-13 40.75-8.65Q40.75-5.45 42.45-4.05 44.15-2.65 47.15-2.65L47.15-2.65Q49.15-2.65 50.55-3.08 51.95-3.5 52.75-3.95L52.75-3.95 52.75-13 56.75-13 56.75-4.1Q56.75-3.05 56.47-2.43 56.2-1.8 55.15-1.2L55.15-1.2Q54.05-0.55 52 0.05 49.95 0.65 47.1 0.65L47.1 0.65Q43.8 0.65 41.47-0.33 39.15-1.3 37.95-3.33 36.75-5.35 36.75-8.45ZM56.75-21.5L56.75-10.4 52.75-10.4 52.75-23Q53-23.1 53.52-23.23 54.05-23.35 54.6-23.35L54.6-23.35Q55.7-23.35 56.22-22.93 56.75-22.5 56.75-21.5L56.75-21.5ZM40.75-21.5L40.75-10.4 36.75-10.4 36.75-23Q37-23.1 37.52-23.23 38.05-23.35 38.65-23.35L38.65-23.35Q39.7-23.35 40.22-22.93 40.75-22.5 40.75-21.5L40.75-21.5ZM64.3-6.05L64.3-13.2 68.3-13.2 68.3-6.3Q68.3-4.3 69.45-3.48 70.59-2.65 72.59-2.65L72.59-2.65Q73.45-2.65 74.5-2.95 75.55-3.25 76.25-3.65L76.25-3.65Q76.55-3.35 76.8-2.9 77.05-2.45 77.05-1.85L77.05-1.85Q77.05-0.75 75.75-0.05 74.45 0.65 72.15 0.65L72.15 0.65Q68.65 0.65 66.47-0.9 64.3-2.45 64.3-6.05L64.3-6.05ZM75.45-19.3L66.34-19.3 66.34-22.6 76.5-22.6Q76.65-22.4 76.8-21.95 76.95-21.5 76.95-21L76.95-21Q76.95-20.2 76.55-19.75 76.15-19.3 75.45-19.3L75.45-19.3ZM68.3-28.35L68.3-11.7 64.3-11.7 64.3-29.8Q64.55-29.9 65.07-30.03 65.59-30.15 66.2-30.15L66.2-30.15Q67.25-30.15 67.77-29.73 68.3-29.3 68.3-28.35L68.3-28.35ZM86.84-18.8L86.84-18.8 86.84-10.9 82.84-10.9 82.84-18.5Q82.84-19.65 83.27-20.33 83.69-21 84.69-21.65L84.69-21.65Q85.99-22.5 88.24-23.13 90.49-23.75 93.24-23.75L93.24-23.75Q97.24-23.75 97.24-21.75L97.24-21.75Q97.24-21.25 97.09-20.83 96.94-20.4 96.69-20.1L96.69-20.1Q96.19-20.2 95.39-20.3 94.59-20.4 93.79-20.4L93.79-20.4Q91.49-20.4 89.74-19.93 87.99-19.45 86.84-18.8ZM82.84-1.55L82.84-13.2 86.84-12.6 86.84-0.1Q86.59 0 86.09 0.13 85.59 0.25 84.99 0.25L84.99 0.25Q83.94 0.25 83.39-0.18 82.84-0.6 82.84-1.55L82.84-1.55ZM101.59-30.4L101.59-30.4Q101.59-31.45 102.34-32.18 103.09-32.9 104.19-32.9L104.19-32.9Q105.34-32.9 106.04-32.18 106.74-31.45 106.74-30.4L106.74-30.4Q106.74-29.35 106.04-28.63 105.34-27.9 104.19-27.9L104.19-27.9Q103.09-27.9 102.34-28.63 101.59-29.35 101.59-30.4ZM102.19-1.55L102.19-13.2 106.19-13.2 106.19-0.1Q105.94 0 105.44 0.13 104.94 0.25 104.34 0.25L104.34 0.25Q103.29 0.25 102.74-0.18 102.19-0.6 102.19-1.55L102.19-1.55ZM106.19-21.5L106.19-11.25 102.19-11.25 102.19-23Q102.44-23.1 102.97-23.23 103.49-23.35 104.09-23.35L104.09-23.35Q105.14-23.35 105.66-22.93 106.19-22.5 106.19-21.5L106.19-21.5ZM114.04-6.05L114.04-13.2 118.04-13.2 118.04-6.3Q118.04-4.3 119.19-3.48 120.34-2.65 122.34-2.65L122.34-2.65Q123.19-2.65 124.24-2.95 125.29-3.25 125.99-3.65L125.99-3.65Q126.29-3.35 126.54-2.9 126.79-2.45 126.79-1.85L126.79-1.85Q126.79-0.75 125.49-0.05 124.19 0.65 121.89 0.65L121.89 0.65Q118.39 0.65 116.21-0.9 114.04-2.45 114.04-6.05L114.04-6.05ZM125.19-19.3L116.09-19.3 116.09-22.6 126.24-22.6Q126.39-22.4 126.54-21.95 126.69-21.5 126.69-21L126.69-21Q126.69-20.2 126.29-19.75 125.89-19.3 125.19-19.3L125.19-19.3ZM118.04-28.35L118.04-11.7 114.04-11.7 114.04-29.8Q114.29-29.9 114.81-30.03 115.34-30.15 115.94-30.15L115.94-30.15Q116.99-30.15 117.51-29.73 118.04-29.3 118.04-28.35L118.04-28.35ZM132.24-30.4L132.24-30.4Q132.24-31.45 132.99-32.18 133.74-32.9 134.84-32.9L134.84-32.9Q135.99-32.9 136.69-32.18 137.39-31.45 137.39-30.4L137.39-30.4Q137.39-29.35 136.69-28.63 135.99-27.9 134.84-27.9L134.84-27.9Q133.74-27.9 132.99-28.63 132.24-29.35 132.24-30.4ZM132.84-1.55L132.84-13.2 136.84-13.2 136.84-0.1Q136.59 0 136.09 0.13 135.59 0.25 134.99 0.25L134.99 0.25Q133.94 0.25 133.39-0.18 132.84-0.6 132.84-1.55L132.84-1.55ZM136.84-21.5L136.84-11.25 132.84-11.25 132.84-23Q133.09-23.1 133.61-23.23 134.14-23.35 134.74-23.35L134.74-23.35Q135.78-23.35 136.31-22.93 136.84-22.5 136.84-21.5L136.84-21.5ZM166.08-11.55L166.08-11.55Q166.08-7.85 164.68-5.1 163.28-2.35 160.73-0.85 158.18 0.65 154.73 0.65L154.73 0.65Q151.28 0.65 148.71-0.85 146.13-2.35 144.73-5.1 143.33-7.85 143.33-11.55L143.33-11.55Q143.33-15.3 144.76-18.03 146.18-20.75 148.76-22.25 151.33-23.75 154.73-23.75L154.73-23.75Q158.13-23.75 160.68-22.25 163.23-20.75 164.66-18.03 166.08-15.3 166.08-11.55ZM154.73-20.45L154.73-20.45Q151.38-20.45 149.41-18.07 147.43-15.7 147.43-11.55L147.43-11.55Q147.43-7.35 149.36-5 151.28-2.65 154.73-2.65L154.73-2.65Q158.13-2.65 160.06-5.03 161.98-7.4 161.98-11.55L161.98-11.55Q161.98-15.7 160.06-18.07 158.13-20.45 154.73-20.45ZM192.28-15.25L192.28-15.25 192.28-10.15 188.28-10.15 188.28-15.05Q188.28-17.85 186.71-19.15 185.13-20.45 182.48-20.45L182.48-20.45Q180.48-20.45 178.93-19.95 177.38-19.45 176.28-18.8L176.28-18.8 176.28-10.15 172.28-10.15 172.28-18.6Q172.28-19.65 172.71-20.33 173.13-21 174.18-21.65L174.18-21.65Q175.48-22.4 177.63-23.08 179.78-23.75 182.48-23.75L182.48-23.75Q187.03-23.75 189.66-21.68 192.28-19.6 192.28-15.25ZM172.28-1.55L172.28-12.9 176.28-12.9 176.28-0.1Q176.03 0 175.53 0.13 175.03 0.25 174.43 0.25L174.43 0.25Q173.38 0.25 172.83-0.18 172.28-0.6 172.28-1.55L172.28-1.55ZM188.28-1.55L188.28-12.9 192.28-12.9 192.28-0.1Q192.03 0 191.51 0.13 190.98 0.25 190.43 0.25L190.43 0.25Q189.33 0.25 188.81-0.18 188.28-0.6 188.28-1.55L188.28-1.55ZM199.43-30.4L199.43-30.4Q199.43-31.45 200.18-32.18 200.93-32.9 202.03-32.9L202.03-32.9Q203.18-32.9 203.88-32.18 204.58-31.45 204.58-30.4L204.58-30.4Q204.58-29.35 203.88-28.63 203.18-27.9 202.03-27.9L202.03-27.9Q200.93-27.9 200.18-28.63 199.43-29.35 199.43-30.4ZM200.03-1.55L200.03-13.2 204.03-13.2 204.03-0.1Q203.78 0 203.28 0.13 202.78 0.25 202.18 0.25L202.18 0.25Q201.13 0.25 200.58-0.18 200.03-0.6 200.03-1.55L200.03-1.55ZM204.03-21.5L204.03-11.25 200.03-11.25 200.03-23Q200.28-23.1 200.8-23.23 201.33-23.35 201.93-23.35L201.93-23.35Q202.98-23.35 203.5-22.93 204.03-22.5 204.03-21.5L204.03-21.5ZM228.13-6.15L228.13-6.15Q228.13-2.95 225.78-1.15 223.43 0.65 218.98 0.65L218.98 0.65Q215.18 0.65 212.78-0.53 210.38-1.7 210.38-3.1L210.38-3.1Q210.38-3.7 210.7-4.28 211.03-4.85 211.68-5.2L211.68-5.2Q213.03-4.25 214.83-3.45 216.63-2.65 218.93-2.65L218.93-2.65Q224.13-2.65 224.13-6.15L224.13-6.15Q224.13-7.6 223.25-8.53 222.38-9.45 220.68-9.85L220.68-9.85 216.53-10.95Q213.48-11.7 212.08-13.28 210.68-14.85 210.68-17.2L210.68-17.2Q210.68-19.85 212.83-21.8 214.98-23.75 219.38-23.75L219.38-23.75Q221.73-23.75 223.48-23.28 225.23-22.8 226.2-22.03 227.18-21.25 227.18-20.35L227.18-20.35Q227.18-19.7 226.85-19.2 226.53-18.7 225.98-18.45L225.98-18.45Q225.38-18.85 224.45-19.33 223.53-19.8 222.28-20.13 221.03-20.45 219.53-20.45L219.53-20.45Q217.33-20.45 215.98-19.6 214.63-18.75 214.63-17.2L214.63-17.2Q214.63-16.1 215.4-15.28 216.18-14.45 217.88-14.05L217.88-14.05 221.33-13.2Q224.73-12.4 226.43-10.68 228.13-8.95 228.13-6.15ZM234.22-6.05L234.22-13.2 238.22-13.2 238.22-6.3Q238.22-4.3 239.37-3.48 240.52-2.65 242.52-2.65L242.52-2.65Q243.37-2.65 244.42-2.95 245.47-3.25 246.17-3.65L246.17-3.65Q246.47-3.35 246.72-2.9 246.97-2.45 246.97-1.85L246.97-1.85Q246.97-0.75 245.67-0.05 244.37 0.65 242.07 0.65L242.07 0.65Q238.57 0.65 236.4-0.9 234.22-2.45 234.22-6.05L234.22-6.05ZM245.37-19.3L236.27-19.3 236.27-22.6 246.42-22.6Q246.57-22.4 246.72-21.95 246.87-21.5 246.87-21L246.87-21Q246.87-20.2 246.47-19.75 246.07-19.3 245.37-19.3L245.37-19.3ZM238.22-28.35L238.22-11.7 234.22-11.7 234.22-29.8Q234.47-29.9 235-30.03 235.52-30.15 236.12-30.15L236.12-30.15Q237.17-30.15 237.7-29.73 238.22-29.3 238.22-28.35L238.22-28.35Z" opacity="1" transform="matrix(1,0,0,1,0,0)" fill="#ffffff" class="slogan-text-1" data-fill-palette-color="secondary" id="text-1"></path></svg></g></svg></g></svg></g></svg></g><g><svg viewBox="0 0 244.43135999999998 244.43135999999998" height="244.43135999999998" width="244.43135999999998"><g><svg viewBox="0 0 244.43135999999998 244.43135999999998" height="244.43135999999998" width="244.43135999999998"><g transform="matrix(1,0,0,1,64.60899217832335,64.60265593644992)"><svg viewBox="0 0 115.21337564335327 115.22604812710014" height="115.22604812710014" width="115.21337564335327"><g><svg xmlns="http://www.w3.org/2000/svg" xmlns:xlink="http://www.w3.org/1999/xlink" version="1.1" x="0" y="0" viewBox="10.129 10 79.99100000000011 79.99979832434167" style="enable-background:new 0 0 100 100;" xml:space="preserve" height="115.22604812710014" width="115.21337564335327" class="icon-dxe-0" data-fill-palette-color="accent" id="dxe-0"><path d="M18.362 59.741A1 1 0 0 0 19.704 59.293L22.149 54.403C22.163 54.376 22.187 54.332 22.217 54.27 22.585 53.592 24.976 49.615 31.038 48.364 33.764 47.802 35.583 46.65 36.446 44.94 36.998 43.848 37.039 42.742 36.93 41.879 38.47 41.762 40.004 40.727 40.834 39.067 41.58 37.575 41.603 35.909 40.955 34.622A5.5 5.5 0 0 0 42.117 33.061C42.95 31.393 42.86 29.478 41.965 28.158 42.091 27.969 42.206 27.771 42.308 27.568 43.313 25.557 42.966 23.269 41.591 22.012 41.945 21.059 42.026 20.047 41.814 19.109 41.543 17.911 40.837 16.971 39.825 16.465 38.811 15.958 37.636 15.957 36.516 16.459 35.655 16.846 34.906 17.499 34.358 18.332 33.525 18.117 32.626 18.205 31.759 18.593 30.707 19.066 29.822 19.937 29.267 21.045A5.5 5.5 0 0 0 28.888 22.018C27.504 22.305 26.234 23.315 25.513 24.757A5.5 5.5 0 0 0 24.966 26.585C23.525 26.816 22.181 27.837 21.42 29.357 20.572 31.053 20.687 32.947 21.568 34.253 20.825 34.686 19.992 35.375 19.463 36.445 18.613 38.161 18.783 40.308 19.968 42.826 22.508 48.224 20.921 52.318 20.485 53.256L20.416 53.396 20.365 53.498 17.915 58.397A1 1 0 0 0 18.362 59.741M21.248 37.352C21.934 35.947 23.588 35.556 23.599 35.553A1 1 0 0 0 23.837 33.68C22.805 33.163 22.523 31.626 23.21 30.254 23.775 29.124 24.85 28.43 25.824 28.552A1 1 0 0 0 26.949 27.462 3.3 3.3 0 0 1 27.303 25.654C27.818 24.625 28.777 23.937 29.694 23.937H29.72A1 1 0 0 0 30.712 23.063C30.761 22.679 30.877 22.302 31.057 21.943 31.406 21.245 31.947 20.704 32.578 20.421 33.142 20.169 33.709 20.159 34.168 20.388 34.207 20.408 34.242 20.431 34.286 20.458 34.533 20.608 34.842 20.623 35.12 20.538 35.397 20.45 35.631 20.226 35.745 19.959L35.812 19.81C36.161 19.112 36.701 18.571 37.333 18.288 37.896 18.035 38.462 18.024 38.929 18.258 39.394 18.49 39.725 18.95 39.861 19.553 40.013 20.229 39.905 20.985 39.556 21.683L39.46 21.856A1 1 0 0 0 39.832 23.221C39.857 23.236 39.883 23.248 39.911 23.261 40.927 23.787 41.2 25.314 40.518 26.677A3.5 3.5 0 0 1 39.936 27.512 0.997 0.997 0 0 0 40.017 28.954C40.796 29.62 40.926 30.973 40.328 32.17A3.3 3.3 0 0 1 39.082 33.544 0.998 0.998 0 0 0 38.864 35.086C39.526 35.793 39.6 37.064 39.044 38.176 38.358 39.549 36.962 40.246 35.927 39.729A1 1 0 0 0 34.764 41.322C34.922 41.802 35.202 42.968 34.66 44.041 34.086 45.179 32.731 45.975 30.633 46.407 28.333 46.882 26.491 47.704 25.039 48.624L27.955 42.794 32.427 41.304A1 1 0 1 0 31.795 39.407L29.219 40.265 30.867 36.97 35.339 35.48A1 1 0 1 0 34.707 33.583L32.131 34.441 33.898 30.908 38.37 29.418A1 1 0 1 0 37.738 27.521L35.163 28.379 37.035 24.635A1 1 0 1 0 35.246 23.741L33.399 27.433 32.566 24.934A1 1 0 1 0 30.668 25.567L32.133 29.963 30.367 33.494 29.534 30.995A0.999 0.999 0 1 0 27.637 31.628L29.102 36.024 27.455 39.318 26.622 36.819A1 1 0 1 0 24.724 37.452L26.189 41.848 23.319 47.587C23.18 45.924 22.739 44.026 21.775 41.978 20.87 40.048 20.692 38.492 21.248 37.352" fill="#ffffff" data-fill-palette-color="accent"></path><path d="M54.401 52.303C52.609 52.979 51.271 54.665 50.421 57.315 48.589 63.028 44.602 64.93 43.673 65.304L43.569 65.343C43.502 65.366 43.459 65.383 43.444 65.389L43.437 65.392 38.306 67.306 38.304 67.307A1 1 0 1 0 39.004 69.18L44.144 67.264 44.278 67.215C45.066 66.946 49.465 65.696 54.747 68.911 56.381 69.905 57.892 70.404 59.26 70.404 59.883 70.404 60.476 70.3 61.038 70.093 62.183 69.671 62.966 68.894 63.475 68.189 63.842 68.484 64.273 68.719 64.756 68.883 65.848 69.258 67.089 69.222 68.252 68.787 69.814 68.205 70.967 67.001 71.37 65.618H71.379C72.016 65.618 72.661 65.501 73.285 65.267 75.032 64.616 76.271 63.153 76.516 61.578A6 6 0 0 0 77.169 61.38C78.332 60.946 79.292 60.159 79.873 59.163 80.314 58.408 80.503 57.598 80.437 56.823 81.344 56.367 82.09 55.683 82.574 54.854 83.194 53.793 83.317 52.625 82.922 51.564 82.526 50.503 81.668 49.701 80.505 49.305 79.61 48.999 78.616 48.966 77.647 49.204 76.596 47.57 74.265 46.901 72.074 47.718A5.5 5.5 0 0 0 71.135 48.171C69.926 47.437 68.308 47.311 66.799 47.873A5.5 5.5 0 0 0 65.153 48.837C63.94 48.025 62.261 47.854 60.668 48.449 58.891 49.112 57.685 50.575 57.439 52.132 56.599 51.943 55.52 51.881 54.401 52.303M59.191 54.377C59.517 54.106 59.636 53.657 59.488 53.259 59.085 52.178 59.926 50.862 61.364 50.325 62.548 49.884 63.813 50.104 64.438 50.861 64.633 51.096 64.938 51.21 65.229 51.224A1 1 0 0 0 66.005 50.829C66.37 50.35 66.885 49.975 67.496 49.748 68.579 49.347 69.759 49.499 70.429 50.134A1 1 0 0 0 71.757 50.177 3.5 3.5 0 0 1 72.772 49.593C74.211 49.055 75.709 49.5 76.111 50.581L76.148 50.709A1.01 1.01 0 0 0 77.532 51.349C77.589 51.324 77.646 51.298 77.708 51.275 78.438 51.003 79.202 50.976 79.859 51.199 80.443 51.398 80.865 51.776 81.047 52.264 81.229 52.751 81.157 53.314 80.846 53.847 80.497 54.445 79.902 54.925 79.168 55.198L78.977 55.26A1 1 0 0 0 78.345 56.573C78.527 57.06 78.456 57.623 78.145 58.156 77.795 58.754 77.201 59.233 76.469 59.507 76.152 59.625 75.818 59.697 75.475 59.72A1.003 1.003 0 0 0 74.548 60.831C74.662 61.832 73.818 62.935 72.584 63.394A3.3 3.3 0 0 1 70.735 63.551 1.002 1.002 0 0 0 69.524 64.53C69.526 65.499 68.714 66.479 67.55 66.914 66.818 67.186 66.054 67.213 65.399 66.99 64.815 66.791 64.393 66.413 64.211 65.925A1.001 1.001 0 0 0 62.274 66.296C62.059 66.76 61.464 67.811 60.328 68.222 59.134 68.654 57.606 68.311 55.784 67.201 53.778 65.98 51.87 65.327 50.181 65.01L56.288 62.733 60.576 64.691A1 1 0 0 0 61.407 62.873L58.937 61.745 62.389 60.458 66.676 62.417A1 1 0 0 0 67.507 60.599L65.037 59.471 68.737 58.091 73.025 60.049A1 1 0 0 0 73.856 58.231L71.386 57.103 75.309 55.64A1 1 0 1 0 74.609 53.767L70.74 55.21 71.835 52.813A1 1 0 1 0 70.016 51.983L68.091 56.198 64.391 57.578 65.485 55.182A1 1 0 1 0 63.666 54.352L61.741 58.566 58.29 59.853 59.385 57.456A1 1 0 1 0 57.566 56.626L55.641 60.841 49.629 63.083C50.662 61.771 51.632 60.083 52.324 57.927 52.975 55.897 53.906 54.636 55.09 54.181 56.551 53.621 58.027 54.463 58.036 54.468 58.402 54.685 58.864 54.649 59.191 54.377" fill="#ffffff" data-fill-palette-color="accent"></path><path d="M38.502 49.155C38.661 50.733 39.425 52.155 40.653 53.158A5.9 5.9 0 0 0 45.004 54.468C46.582 54.31 48.004 53.546 49.007 52.318A5.9 5.9 0 0 0 50.173 49.97 5.9 5.9 0 0 0 52.288 50.141C53.866 49.982 55.288 49.218 56.291 47.99A5.9 5.9 0 0 0 57.601 43.639C57.273 40.382 54.357 38.003 51.099 38.325A5.9 5.9 0 0 0 45.942 42.827 5.9 5.9 0 0 0 43.816 42.654 5.94 5.94 0 0 0 38.502 49.155M47.792 43.682A3.924 3.924 0 0 1 51.298 40.315C53.447 40.092 55.393 41.678 55.61 43.839 55.715 44.885 55.407 45.909 54.742 46.724S53.134 48.045 52.087 48.151A3.9 3.9 0 0 1 50.312 47.922 6 6 0 0 0 50.108 46.924C50.092 46.869 50.079 46.813 50.062 46.758A6 6 0 0 0 49.689 45.863 6 6 0 0 0 48.919 44.713 6 6 0 0 0 48.209 44.007C48.193 43.994 48.181 43.976 48.165 43.963 48.079 43.893 47.988 43.832 47.9 43.767 47.864 43.739 47.83 43.708 47.792 43.682M44.015 44.643A3.9 3.9 0 0 1 46.301 45.109C46.351 45.136 46.396 45.169 46.444 45.198A4 4 0 0 1 47.425 46.032C47.453 46.066 47.477 46.102 47.504 46.137A4 4 0 0 1 47.821 46.608C47.847 46.653 47.875 46.696 47.899 46.742 47.998 46.932 48.079 47.131 48.146 47.336 48.163 47.388 48.177 47.44 48.192 47.493 48.253 47.712 48.304 47.935 48.327 48.166 48.432 49.213 48.124 50.237 47.459 51.052S45.851 52.373 44.804 52.478A3.9 3.9 0 0 1 41.918 51.61 3.9 3.9 0 0 1 40.492 48.955 3.94 3.94 0 0 1 44.015 44.643" fill="#ffffff" data-fill-palette-color="accent"></path><path d="M52.749 27.779C56.023 27.779 58.687 25.116 58.687 21.841S56.023 15.903 52.749 15.903 46.811 18.566 46.811 21.841 49.475 27.779 52.749 27.779M52.749 17.904C54.92 17.904 56.687 19.671 56.687 21.842S54.92 25.78 52.749 25.78 48.811 24.013 48.811 21.842 50.578 17.904 52.749 17.904" fill="#ffffff" data-fill-palette-color="accent"></path><path d="M30.752 53.473C27.478 53.473 24.814 56.136 24.814 59.411S27.478 65.349 30.752 65.349 36.69 62.686 36.69 59.411 34.026 53.473 30.752 53.473M30.752 63.348C28.581 63.348 26.814 61.581 26.814 59.41S28.581 55.472 30.752 55.472 34.69 57.239 34.69 59.41 32.923 63.348 30.752 63.348" fill="#ffffff" data-fill-palette-color="accent"></path><path d="M62.458 35.951L62.676 36.06A3.52 3.52 0 0 1 64.581 38.719L64.614 38.959A5.48 5.48 0 0 0 68.337 43.434 5.48 5.48 0 0 0 73.998 42.075 3.98 3.98 0 0 1 77.526 40.954 5.48 5.48 0 0 0 82.932 38.796 5.48 5.48 0 0 0 83.39 32.994L83.278 32.775A3.52 3.52 0 0 1 83.299 29.505L83.414 29.29A5.48 5.48 0 0 0 83.032 23.481 5.49 5.49 0 0 0 77.657 21.252L77.413 21.292A3.51 3.51 0 0 1 74.311 20.262L74.142 20.086A5.49 5.49 0 0 0 68.5 18.653 5.48 5.48 0 0 0 64.718 23.08L64.681 23.321A3.51 3.51 0 0 1 62.743 25.953L62.523 26.06A5.48 5.48 0 0 0 59.418 30.984 5.48 5.48 0 0 0 62.458 35.951M63.395 27.863L63.615 27.756A5.51 5.51 0 0 0 66.658 23.625L66.695 23.384A3.45 3.45 0 0 1 69.105 20.563 3.6 3.6 0 0 1 70.199 20.391C71.129 20.391 72.017 20.766 72.699 21.476L72.869 21.652A5.52 5.52 0 0 0 77.736 23.269L77.979 23.229A3.45 3.45 0 0 1 81.406 24.649 3.45 3.45 0 0 1 81.65 28.351L81.535 28.566A5.51 5.51 0 0 0 81.501 33.695L81.613 33.914A3.45 3.45 0 0 1 81.321 37.612 3.45 3.45 0 0 1 77.876 38.987 5.96 5.96 0 0 0 72.574 40.672 3.44 3.44 0 0 1 68.967 41.537 3.45 3.45 0 0 1 66.594 38.684L66.561 38.444A5.52 5.52 0 0 0 63.572 34.274L63.354 34.165A3.45 3.45 0 0 1 61.416 31.001 3.45 3.45 0 0 1 63.395 27.863" fill="#ffffff" data-fill-palette-color="accent"></path><path d="M72.408 36.818A5.878 5.878 0 0 0 77.999 29.168C77.524 27.673 76.495 26.452 75.103 25.731S72.121 24.875 70.625 25.349A5.84 5.84 0 0 0 67.188 28.245 5.83 5.83 0 0 0 66.806 32.723 5.88 5.88 0 0 0 72.408 36.818M68.965 29.165A3.85 3.85 0 0 1 71.232 27.256 3.85 3.85 0 0 1 74.184 27.507 3.85 3.85 0 0 1 76.094 29.774 3.876 3.876 0 0 1 73.577 34.636 3.88 3.88 0 0 1 68.714 32.118 3.84 3.84 0 0 1 68.965 29.165" fill="#ffffff" data-fill-palette-color="accent"></path><path d="M89.121 10H11.129A1 1 0 0 0 10.129 11V75.874A1 1 0 0 0 11.129 76.874H22.159L34.882 89.704A1 1 0 0 0 36.302 89.704L49.025 76.874H89.12A1 1 0 0 0 90.12 75.874V11A1 1 0 0 0 89.121 10M88.121 74.874H48.609A1 1 0 0 0 47.899 75.17L35.592 87.58 23.286 75.17A1 1 0 0 0 22.576 74.874H12.129V12H88.12z" fill="#ffffff" data-fill-palette-color="accent"></path></svg></g></svg></g><g id="text-0"><path d="M59.617 108.117c-0.211 0.519-0.577 0.673-1.096 0.462v0l-53.097-21.624c-0.519-0.211-0.673-0.577-0.462-1.097v0l1.623-3.983c0.211-0.519 0.577-0.673 1.096-0.462v0l25.299 10.304c0.155 0.063 0.281 0.052 0.379-0.034 0.095-0.08 0.073-0.179-0.066-0.298v0l-19.548-25.528c-0.257-0.411-0.312-0.798-0.164-1.162v0l1.779-4.369c0.126-0.31 0.304-0.482 0.533-0.513 0.22-0.029 0.43 0.088 0.63 0.35v0l16.196 20.791c0.165 0.193 0.312 0.284 0.442 0.273v0l36.614-0.744 0.346 0.047c0.418 0.17 0.531 0.491 0.339 0.963v0l-1.812 4.449c-0.17 0.418-0.496 0.619-0.977 0.604v0l-31.123 0.434c-0.231-0.031-0.283 0.097-0.157 0.385v0l5.521 7.895c0.032 0.076 0.152 0.156 0.361 0.241v0l18.505 7.536c0.519 0.211 0.673 0.577 0.461 1.096v0z" fill="#ffffff" data-fill-palette-color="accent"></path><path d="M74.785 13.15c0.304 0.471 0.217 0.861-0.26 1.168v0l-16.439 10.589c-0.19 0.122-0.223 0.278-0.102 0.468v0l11.323 17.577c0.119 0.184 0.273 0.215 0.462 0.094v0l10.345-6.664c0.477-0.307 0.869-0.222 1.176 0.254v0l1.963 3.048c0.304 0.471 0.217 0.861-0.26 1.168v0l-10.345 6.663c-0.19 0.122-0.223 0.278-0.101 0.468v0l11.364 17.642c0.122 0.19 0.278 0.223 0.468 0.101v0l16.44-10.589c0.477-0.307 0.867-0.225 1.17 0.246v0l1.921 2.983c0.304 0.471 0.217 0.861-0.26 1.167v0l-21.047 13.558c-0.471 0.304-0.859 0.22-1.162-0.252v0l-31.046-48.198c-0.304-0.471-0.22-0.859 0.251-1.162v0l21.048-13.557c0.477-0.307 0.867-0.225 1.17 0.246v0z" fill="#ffffff" data-fill-palette-color="accent"></path><path d="M145.608 2.061c0.03-0.56 0.325-0.825 0.885-0.795v0l4.208 0.226c0.56 0.03 0.825 0.325 0.795 0.884v0l-3.07 57.25c-0.03 0.56-0.325 0.825-0.884 0.794v0l-4.962-0.266c-0.45-0.024-0.747-0.266-0.89-0.725v0l-14.086-44.404c-0.049-0.17-0.129-0.242-0.24-0.216-0.117 0.02-0.18 0.113-0.189 0.281v0l-2.233 43.277c-0.03 0.56-0.325 0.825-0.885 0.794v0l-4.295-0.23c-0.56-0.03-0.825-0.325-0.795-0.885v0l3.069-57.249c0.03-0.56 0.325-0.825 0.885-0.795v0l4.884 0.262c0.45 0.024 0.747 0.266 0.891 0.726v0l14.158 44.484c0.049 0.177 0.128 0.252 0.24 0.226 0.117-0.02 0.18-0.113 0.189-0.28v0z" fill="#ffffff" data-fill-palette-color="accent"></path><path d="M164.849 71.751c-0.465-0.313-0.541-0.702-0.228-1.168v0l31.999-47.57c0.313-0.465 0.702-0.541 1.168-0.228v0l3.569 2.401c0.465 0.313 0.541 0.702 0.228 1.167v0l-31.999 47.57c-0.313 0.465-0.702 0.541-1.167 0.229v0z" fill="#ffffff" data-fill-palette-color="accent"></path><path d="M189.147 109.558c-0.206-0.458-0.104-0.844 0.307-1.156v0l8.675-6.212c0.1-0.045 0.159-0.117 0.177-0.218 0.019-0.1 0.005-0.2-0.039-0.3v0l-6.261-13.92c-0.045-0.1-0.111-0.176-0.198-0.229-0.087-0.053-0.181-0.056-0.281-0.011v0l-10.403 2.368c-0.482 0.153-0.838-0.026-1.068-0.537v0l-1.765-3.923c-0.116-0.259-0.127-0.487-0.032-0.685 0.097-0.192 0.286-0.323 0.565-0.392v0l57.468-11.973c0.509-0.109 0.868 0.069 1.077 0.533v0l2.074 4.611c0.23 0.511 0.125 0.898-0.316 1.16v0l-47.024 35.193-0.159 0.071c-0.458 0.206-0.791 0.08-0.996-0.378v0zM197.053 86.224c-0.206 0.093-0.274 0.215-0.206 0.368v0l5.464 12.148c0.069 0.153 0.206 0.183 0.412 0.091v0l27.448-19.733c0.129-0.122 0.182-0.209 0.158-0.262-0.024-0.053-0.123-0.068-0.297-0.047v0z" fill="#ffffff" data-fill-palette-color="accent"></path><path d="M20.11 168.736c-0.211-0.519-0.058-0.885 0.461-1.096v0l53.097-21.624c0.519-0.211 0.885-0.058 1.096 0.461v0l1.623 3.984c0.211 0.519 0.058 0.885-0.462 1.096v0l-25.299 10.304c-0.155 0.063-0.238 0.159-0.248 0.289-0.012 0.123 0.073 0.179 0.256 0.167v0l31.82 4.606c0.471 0.114 0.781 0.354 0.929 0.718v0l1.78 4.369c0.126 0.31 0.119 0.557-0.023 0.739-0.138 0.174-0.369 0.237-0.695 0.19v0l-26.113-3.56c-0.253-0.022-0.419 0.014-0.498 0.109v0l-25.686 26.116-0.28 0.209c-0.418 0.17-0.723 0.019-0.915-0.452v0l-1.812-4.45c-0.17-0.418-0.078-0.789 0.276-1.114v0l21.965-22.055c0.189-0.133 0.137-0.261-0.157-0.385v0l-9.465-1.792c-0.076-0.032-0.218-0.005-0.427 0.08v0l-18.505 7.536c-0.519 0.211-0.885 0.058-1.096-0.461v0z" fill="#ffffff" data-fill-palette-color="accent"></path><path d="M110.846 191.63c-0.304 0.471-0.694 0.553-1.171 0.247v0l-16.439-10.59c-0.19-0.122-0.345-0.088-0.468 0.101v0l-11.322 17.578c-0.119 0.184-0.083 0.337 0.106 0.459v0l10.345 6.664c0.477 0.307 0.562 0.699 0.255 1.176v0l-1.963 3.047c-0.304 0.471-0.694 0.553-1.171 0.246v0l-10.345-6.663c-0.19-0.122-0.345-0.088-0.467 0.101v0l-11.365 17.642c-0.122 0.19-0.088 0.345 0.102 0.468v0l16.439 10.59c0.477 0.307 0.563 0.696 0.26 1.167v0l-1.921 2.983c-0.304 0.471-0.694 0.553-1.171 0.246v0l-21.047-13.558c-0.471-0.304-0.555-0.691-0.252-1.162v0l31.047-48.198c0.304-0.471 0.691-0.555 1.162-0.251v0l21.047 13.557c0.477 0.307 0.563 0.696 0.26 1.168v0z" fill="#ffffff" data-fill-palette-color="accent"></path><path d="M141.663 185.121c-0.03-0.56 0.235-0.855 0.794-0.884v0l4.209-0.226c0.56-0.03 0.855 0.235 0.885 0.795v0l3.069 57.249c0.03 0.56-0.235 0.855-0.795 0.885v0l-4.961 0.266c-0.45 0.024-0.771-0.185-0.963-0.626v0l-18.752-42.643c-0.067-0.164-0.154-0.231-0.263-0.199-0.114 0.038-0.167 0.141-0.157 0.308v0l2.406 43.268c0.03 0.56-0.235 0.855-0.794 0.885v0l-4.296 0.23c-0.56 0.03-0.855-0.235-0.885-0.795v0l-3.069-57.249c-0.03-0.56 0.235-0.855 0.795-0.885v0l4.884-0.261c0.45-0.024 0.771 0.185 0.963 0.626v0l18.834 42.716c0.067 0.171 0.158 0.237 0.272 0.198 0.108-0.032 0.158-0.131 0.148-0.298v0z" fill="#ffffff" data-fill-palette-color="accent"></path><path d="M188.659 224.408c-0.465 0.313-0.854 0.237-1.168-0.228v0l-31.999-47.571c-0.313-0.465-0.237-0.854 0.229-1.167v0l3.569-2.401c0.465-0.313 0.854-0.237 1.167 0.229v0l31.999 47.57c0.313 0.465 0.237 0.854-0.228 1.167v0z" fill="#ffffff" data-fill-palette-color="accent"></path><path d="M228.051 168.704c-0.206 0.458-0.562 0.637-1.068 0.537v0l-10.403-2.368c-0.1-0.045-0.193-0.041-0.281 0.011-0.087 0.053-0.153 0.129-0.198 0.229v0l-6.261 13.92c-0.045 0.1-0.058 0.2-0.04 0.3 0.019 0.1 0.078 0.173 0.178 0.218v0l8.674 6.212c0.435 0.259 0.537 0.644 0.307 1.156v0l-1.764 3.923c-0.116 0.259-0.28 0.418-0.491 0.478-0.208 0.055-0.431 0-0.669-0.163v0l-47.096-35.056c-0.413-0.306-0.516-0.691-0.307-1.156v0l2.074-4.611c0.23-0.511 0.586-0.69 1.068-0.537v0l57.54 11.837 0.159 0.071c0.458 0.206 0.585 0.538 0.378 0.997v0zM205.348 178.271c0.206 0.093 0.343 0.062 0.412-0.091v0l5.464-12.148c0.069-0.153 0-0.275-0.206-0.368v0l-32.975-7.444c-0.177-0.016-0.277 0.003-0.301 0.056-0.024 0.053 0.03 0.137 0.162 0.253v0z" fill="#ffffff" data-fill-palette-color="accent"></path><path d="M12.795 130.382c0-12.45 10.093-22.543 22.544-22.543 12.45 0 22.543 10.093 22.543 22.543 0 12.45-10.093 22.543-22.543 22.543-12.45 0-22.543-10.093-22.544-22.543z" fill="#ffffff" data-fill-palette-color="accent"></path><path d="M190.333 130.382c0-12.45 10.093-22.543 22.543-22.543 12.45 0 22.543 10.093 22.543 22.543 0 12.45-10.093 22.543-22.543 22.543-12.45 0-22.543-10.093-22.543-22.543z" fill="#ffffff" data-fill-palette-color="accent"></path></g><g id="text-1"></g></svg></g></svg></g></svg></g><defs></defs></svg><rect width="395.5199999999999" height="133.28878130248418" fill="none" stroke="none" visibility="hidden"></rect></g></svg></g></svg>